<!-- https://www.freepik.com/free-vector/robotic-arms-machine-hands-factory-plant-industrial-mechanic-equipment-automatic-manipulators-manufacturing-production-line-vector-isometric-set-hydraulic-robot-arms_11049594.htm#fromView=image_search_similar&page=3&position=31&uuid=49333573-0977-48b3-9959-b904cb2d8ef3&query=isometric+robot -->
<svg width="400" height="600" viewBox="38 100 300 250" xmlns="http://www.w3.org/2000/svg">
    <defs>
		<linearGradient id="g1" x2="1" gradientUnits="userSpaceOnUse" gradientTransform="matrix(140.698,-221.524,1472.1,934.984,150.768,262.557)">
			<stop offset=".01" stop-color="#a8cff0"/>
			<stop offset=".667" stop-color="#ffffff"/>
		</linearGradient>
		<linearGradient id="g2" x2="1" gradientUnits="userSpaceOnUse" gradientTransform="matrix(12.11,-15.609,23.379,18.139,251.518,116.323)">
			<stop offset=".01" stop-color="#a8cff0"/>
			<stop offset=".667" stop-color="#ffffff"/>
		</linearGradient>
	</defs>
    <style>
		.s0 { fill: #80bbe8 } 
		.s1 { fill: #80bbe8 } 
		.s2 { fill: #a8cff0 } 
		.s3 { fill: #80bbe8 } 
		.s4 { fill: #80bbe8 } 
		.s5 { fill: #80bbe8 } 
		.s6 { mix-blend-mode: multiply;fill: url(#g1) } 
		.s7 { fill: #80bbe8 } 
		.s8 { mix-blend-mode: screen;fill: #e6e7e8 } 
		.s9 { fill: #5a9bd8 } 
		.s10 { fill: #80bbe8 } 
		.s11 { mix-blend-mode: multiply;fill: url(#g2) } 
	</style>
	<g id="&lt;Group&gt;">
		<g id="&lt;Group&gt;">
			<path id="&lt;Path&gt;" class="s0" d="m140.3 282.5h96.1v10.2q0 0.2 0 0.4c0 15.5-21.5 28-48.1 28-26.5 0-48-12.5-48-28q0-0.2 0-0.4z"/>
			<path id="&lt;Path&gt;" class="s1" d="m236.4 283.7c0 15.4-21.5 28-48.1 28-26.5 0-48-12.6-48-28 0-15.5 21.5-28 48-28 26.6 0 48.1 12.5 48.1 28z"/>
			<path id="&lt;Path&gt;" class="s2" d="m144.3 250.3h88.1v29.6h-0.1q0 0.2 0.1 0.4c0 14.1-19.7 25.6-44.1 25.6-24.3 0-44-11.5-44-25.6q0-0.2 0.1-0.4h-0.1z"/>
			<path id="&lt;Path&gt;" class="s3" d="m144.3 251.7c0 14.2 19.7 25.7 44 25.7 24.4 0 44.1-11.5 44.1-25.7 0-14.1-19.7-25.6-44.1-25.6-24.3 0-44 11.5-44 25.6z"/>
			<path id="&lt;Path&gt;" class="s4" d="m232.4 250.5c0 14.2-19.7 25.7-44.1 25.7-24.3 0-44-11.5-44-25.7 0-14.1 19.7-25.6 44-25.6 24.4 0 44.1 11.5 44.1 25.6z"/>
		</g>
		<path id="&lt;Path&gt;" class="s5" d="m182.6 228.1l45.3 26.2-5.4 3.2-45.7-26.1z"/>
		<path id="&lt;Path&gt;" class="s4" d="m182.6 227.3l45.3 26.2-5.4 3.2-45.7-26.1z"/>
		<path id="&lt;Path&gt;" class="s2" d="m223.6 254.4c-0.9 0.5-2.2 0.5-3 0-0.9-0.4-0.9-1.2-0.1-1.7 0.9-0.5 2.2-0.5 3.1 0 0.8 0.5 0.8 1.3 0 1.7z"/>
		<g id="&lt;Group&gt;">
			<path id="&lt;Path&gt;" class="s2" d="m250.3 121.5l-102.4-60c-3.6-2-6.5 0.2-6.5 4.9v2.2c0 4.8 2.9 10.3 6.5 12.3l102.4 60c3.6 2.1 6.5-0.1 6.5-4.8v-2.2c0-4.8-2.9-10.3-6.5-12.4z"/>
			<path id="&lt;Path&gt;" class="s6" d="m250.3 121.5l-102.4-60c-3.6-2-6.5 0.2-6.5 4.9v2.2c0 4.8 2.9 10.3 6.5 12.3l102.4 60c3.6 2.1 6.5-0.1 6.5-4.8v-2.2c0-4.8-2.9-10.3-6.5-12.4z"/>
			<path id="&lt;Path&gt;" class="s5" d="m253.7 119.6l-102.5-60c-1.5-0.9-2.9-1-4-0.5h-0.1l-3.5 2.1c1.2-0.7 2.6-0.6 4.3 0.3l102.4 60c3.6 2.1 6.5 7.6 6.5 12.4v2.2c0 2.3-0.7 4-1.8 4.9l2-1.3c1.6-1 3.1-2.4 3.1-5.6v-2.2c0-4.7-2.9-10.3-6.4-12.3z"/>
			<path id="&lt;Path&gt;" class="s3" d="m250.7 121.2l-102.5-60c-1.7-1-3.3-1-4.5-0.1 1.1-0.4 2.4-0.3 3.8 0.5l102.4 60.1c3.6 2 6.5 7.5 6.5 12.3v2.2c0 2.4-0.8 4.1-1.9 5 1.6-0.6 2.7-2.6 2.7-5.4v-2.2c0-4.8-2.9-10.3-6.5-12.4z"/>
		</g>
		<path id="&lt;Path&gt;" class="s4" d="m227.4 137.4c0 8.6 7 15.6 15.7 15.6 8.6 0 15.6-7 15.6-15.6 0-8.7-7-15.7-15.6-15.7-8.7 0-15.7 7-15.7 15.7z"/>
		<path id="&lt;Path&gt;" class="s5" d="m177.4 198.1c0-3.7 0.7-6.8 2-9.3l-1-1.8 4.9-2.8q0.6-0.4 1.3-0.8l0.4-0.2v0.1c4-1.8 9.2-1.2 15 2.1 12.5 7.2 22.6 24.6 22.7 38.9v33.1l-5.8 3.4-5.1-9.7-34.4-19.9z"/>
		<path id="&lt;Path&gt;" class="s2" d="m171.5 201.5c0.1-14.2 10.2-19.9 22.7-12.7 12.4 7.2 22.6 24.6 22.6 38.9h0.1v33.1l-45.4-26.2v-33.1z"/>
		<path id="&lt;Path&gt;" class="s3" d="m216.5 227.8c-0.1-14.4-10.2-31.7-22.7-38.9-5.3-3.1-10.2-3.8-14.1-2.5 4-1.6 9.1-1 14.7 2.2 12.5 7.2 22.6 24.6 22.7 38.9v33.1l-0.6-0.3z"/>
		<g id="&lt;Group&gt;">
			<path id="&lt;Path&gt;" class="s1" d="m125.1 66.6l-0.5-1.2c0 0 12-7.1 12.9-7.3l0.4-0.2q1.5-0.4 3.3-0.3c9 0.5 19.7 11.3 23.8 24.1l42.1 132.7c3.8 12 1.5 21.8-5 24.9l-12.2 7.3-0.4-0.9q-0.8 0.1-1.8 0c-10.5-0.5-22.9-13.1-27.7-27.9l-35.5-133.2c-2.4-7.5-2-14 0.6-18z"/>
			<path id="&lt;Path&gt;" class="s7" d="m183.7 247.9c10.6 0.6 15.2-11 10.4-25.9l-40.2-133.8c-4.1-12.7-14.8-23.5-23.9-24-9-0.5-13 9.5-8.9 22.2l34.9 133.5c4.8 14.9 17.2 27.4 27.7 28z"/>
			<path id="&lt;Path&gt;" class="s2" d="m193.7 222.6l-40.2-133.8c-4.1-12.8-14.8-23.6-23.9-24.1-2.3-0.1-4.2 0.4-5.8 1.5 1.7-1.6 4-2.4 6.9-2.3 9 0.5 19.7 11.3 23.8 24l40.3 133.8c3.6 11.1 1.9 20.3-3.5 24.1 4.5-4.2 5.7-12.9 2.4-23.2z"/>
		</g>
		<path id="&lt;Path&gt;" class="s5" d="m158.2 209.6c0-3.7 0.7-6.8 2-9.3l-0.9-1.8 4.8-2.8q0.7-0.4 1.4-0.8l0.3-0.2v0.1c4-1.8 9.3-1.2 15.1 2.1 12.4 7.2 22.5 24.6 22.6 38.9v33.1l-5.8 3.4-5.1-9.7-34.4-19.9z"/>
		<path id="&lt;Path&gt;" class="s2" d="m152.3 213c0.1-14.2 10.3-19.9 22.7-12.7 12.5 7.2 22.6 24.6 22.7 38.9v33.1l-45.4-26.2v-33.1z"/>
		<path id="&lt;Path&gt;" class="s2" d="m259.2 137c0 5.2-3.7 11.6-8.3 14.2-4.5 2.6-8.2 0.5-8.2-4.7 0-5.2 3.7-11.6 8.2-14.2 4.6-2.7 8.3-0.5 8.3 4.7z"/>
		<g id="&lt;Group&gt;">
			<path id="&lt;Path&gt;" class="s2" d="m240.9 143.4c0 3.4-2.4 4.8-5.4 3.1-3-1.8-5.4-6-5.4-9.4 0-3.5 2.4-4.8 5.4-3.1 3 1.7 5.4 5.9 5.4 9.4z"/>
			<path id="&lt;Path&gt;" class="s8" d="m235.8 133.9c-1.5-0.9-2.8-1-3.8-0.5 1-0.2 2.1-0.1 3.3 0.6 3 1.8 5.4 6 5.4 9.4 0 1.8-0.6 3.1-1.7 3.6 1.3-0.4 2.2-1.7 2.2-3.8 0-3.4-2.4-7.6-5.4-9.3z"/>
		</g>
		<g id="&lt;Group&gt;">
			<path id="&lt;Path&gt;" class="s2" d="m232.7 133l-102.5-60c-3.6-2-6.5 0.2-6.5 4.9v2.2c0 4.8 2.9 10.3 6.5 12.3l102.5 60c3.5 2.1 6.4-0.1 6.4-4.8v-2.2c0-4.8-2.9-10.3-6.4-12.4z"/>
			<path id="&lt;Path&gt;" class="s5" d="m236 131.1l-102.5-60c-1.5-0.9-2.9-1-4-0.5h-0.1l-3.5 2.1c1.2-0.7 2.7-0.6 4.3 0.3l102.5 60c3.5 2.1 6.4 7.6 6.4 12.4v2.2c0 2.3-0.7 4-1.8 4.9l2-1.3c1.6-1 3.1-2.4 3.1-5.6v-2.2c0-4.7-2.9-10.3-6.4-12.3z"/>
			<path id="&lt;Path&gt;" class="s3" d="m233 132.7l-102.5-60c-1.7-1-3.3-1-4.5-0.1 1.1-0.4 2.4-0.3 3.8 0.5l102.4 60.1c3.6 2 6.5 7.5 6.5 12.3v2.2c0 2.4-0.8 4.1-1.9 5 1.6-0.6 2.7-2.6 2.7-5.4v-2.2c0-4.8-2.9-10.3-6.5-12.4z"/>
		</g>
		<path id="&lt;Path&gt;" class="s0" d="m138.6 87.9c0 3.9-2.8 5.5-6.2 3.5-3.4-2-6.1-6.7-6.1-10.6 0-3.9 2.7-5.5 6.1-3.5 3.4 2 6.2 6.7 6.2 10.6z"/>
		<g id="&lt;Group&gt;">
			<g id="&lt;Group&gt;">
				<g id="&lt;Group&gt;">
					<path id="&lt;Path&gt;" class="s1" d="m136.9 87.6c0 1.6-0.5 2.7-1.4 3.2 0 0.1-2.5 1.5-2.5 1.5-1 0.6-0.4-0.6-1.8-1.4-2.8-1.6-5-5.5-5-8.7 0-1.6-1.5-1.6-0.6-2.2 0 0 2.7-1.5 2.8-1.5 0.9-0.5 2.1-0.4 3.5 0.4 2.8 1.6 5 5.5 5 8.7z"/>
					<path id="&lt;Path&gt;" class="s5" d="m134.3 89.2c0 3.2-2.3 4.5-5.1 2.9-2.8-1.7-5.1-5.6-5.1-8.8 0-3.2 2.3-4.5 5.1-2.8 2.8 1.6 5.1 5.5 5.1 8.7z"/>
					<path id="&lt;Path&gt;" class="s2" d="m129.4 80.3c-1.3-0.7-2.5-0.8-3.4-0.4 0.8-0.2 1.9-0.1 3 0.6 2.8 1.6 5.1 5.5 5.1 8.7 0 1.7-0.7 2.8-1.6 3.3 1.2-0.3 2-1.5 2-3.4 0-3.3-2.3-7.2-5.1-8.8z"/>
				</g>
			</g>
		</g>
		<path id="&lt;Path&gt;" class="s0" d="m184.4 230.4c0 6.8-4.8 9.5-10.7 6.1-5.9-3.4-10.7-11.7-10.7-18.5 0-6.8 4.8-9.5 10.7-6.1 5.9 3.4 10.7 11.7 10.7 18.5z"/>
		<g id="&lt;Group&gt;">
			<g id="&lt;Group&gt;">
				<g id="&lt;Group&gt;">
					<path id="&lt;Path&gt;" class="s1" d="m182.4 230.8c0 3.1-1.1 5.3-2.8 6.4-0.1 0-2.7 1.6-2.8 1.7-1.8 1-0.6-1.3-3.4-2.9-5.5-3.2-9.9-10.9-9.9-17.2 0-3.1-2.9-3.2-1.2-4.2 0.1 0 3.1-1.7 3.1-1.7 1.8-1 4.3-0.8 7 0.7 5.5 3.2 10 10.9 10 17.2z"/>
					<path id="&lt;Path&gt;" class="s5" d="m179.4 232.6c0 6.3-4.5 8.9-10 5.7-5.5-3.2-10-10.9-10-17.2 0-6.3 4.5-8.9 10-5.7 5.5 3.2 10 10.9 10 17.2z"/>
					<path id="&lt;Path&gt;" class="s2" d="m169.9 215.1c-2.7-1.5-5.1-1.7-6.9-0.8 1.7-0.5 3.8-0.1 6 1.2 5.5 3.2 10 10.9 10 17.2 0 3.3-1.2 5.6-3.2 6.5 2.5-0.7 4.1-3.1 4.1-6.8 0-6.4-4.5-14.1-10-17.3z"/>
				</g>
			</g>
		</g>
		<path id="&lt;Path&gt;" class="s0" d="m235.7 145.4c0 3.9-2.8 5.5-6.2 3.5-3.4-1.9-6.1-6.7-6.1-10.6 0-3.9 2.7-5.5 6.1-3.5 3.4 2 6.2 6.7 6.2 10.6z"/>
		<g id="&lt;Group&gt;">
			<g id="&lt;Group&gt;">
				<g id="&lt;Group&gt;">
					<path id="&lt;Path&gt;" class="s1" d="m234.1 145.1c0 1.6-0.6 2.7-1.5 3.2 0 0.1-2.5 1.5-2.5 1.6-0.9 0.5-0.4-0.7-1.7-1.5-2.8-1.6-5.1-5.5-5.1-8.7 0-1.6-1.5-1.6-0.6-2.1 0.1-0.1 2.7-1.6 2.8-1.6 0.9-0.5 2.1-0.4 3.5 0.4 2.8 1.6 5.1 5.5 5.1 8.7z"/>
					<path id="&lt;Path&gt;" class="s5" d="m231.4 146.7c0 3.2-2.3 4.5-5.1 2.9-2.8-1.6-5.1-5.6-5.1-8.8 0-3.2 2.3-4.5 5.1-2.8 2.8 1.6 5.1 5.5 5.1 8.7z"/>
					<path id="&lt;Path&gt;" class="s2" d="m226.5 137.8c-1.3-0.7-2.5-0.8-3.4-0.4 0.8-0.2 1.9 0 3 0.6 2.8 1.6 5.1 5.5 5.1 8.7 0 1.7-0.6 2.8-1.6 3.3 1.2-0.3 2-1.5 2-3.4 0-3.2-2.3-7.2-5.1-8.8z"/>
				</g>
			</g>
		</g>
		<g id="&lt;Group&gt;">
			<path id="&lt;Path&gt;" class="s1" d="m259.5 143.6v9.3l-11.9-2.6v-13.4z"/>
			<path id="&lt;Path&gt;" class="s0" d="m259.5 143.6v9.3l3.3-1.9v-9.3z"/>
			<path id="&lt;Path&gt;" class="s5" d="m262.8 141.7l-3.3 1.9-11.9-6.7 7.2-4.2z"/>
		</g>
		<g id="&lt;Group&gt;">
			<path id="&lt;Path&gt;" class="s0" d="m262.2 130l-3.3 2v28.7l3.3-1.9c0 0 0.1-28.7 0-28.8z"/>
			<path id="&lt;Path&gt;" class="s9" d="m278.7 162.7l-2.2 1.2 6 8.7 2.2-1.2z"/>
			<path id="&lt;Path&gt;" class="s10" d="m282.5 172.6l-6-8.7-2.8-0.9 8 12.2z"/>
			<g id="&lt;Group&gt;">
				<path id="&lt;Path&gt;" class="s1" d="m262.2 130l17.7 16.5v16.2l-17.7-3.9z"/>
				<path id="&lt;Path&gt;" class="s11" d="m262.2 130l17.7 16.5v16.2l-17.7-3.9z"/>
				<path id="&lt;Path&gt;" class="s5" d="m262.2 130l17.7 16.5-0.4 0.1-17.6-16.2z"/>
				<path id="&lt;Path&gt;" class="s5" d="m277.2 181.2l34.2 15.2v-6.2l-26.8-20.8z"/>
				<path id="&lt;Path&gt;" class="s5" d="m277.2 124.8l34.2 24.3v6.2l-26.8-10.3z"/>
			</g>
			<path id="&lt;Path&gt;" class="s9" d="m270.8 160.4l-1.9 1.1 10.2 16.5 1.9-1.1z"/>
			<path id="&lt;Path&gt;" class="s9" d="m263.6 159.2l-1.9 0.9 13.6 21.1 2-1z"/>
			<path id="&lt;Path&gt;" class="s0" d="m308.1 198.3l3.3-1.9v-6.4l-3.3 2.1c0 0 0 6.2 0 6.2z"/>
			<path id="&lt;Path&gt;" class="s5" d="m281.2 171.4l3.4-2 26.8 20.6-3.3 2.1z"/>
			<path id="&lt;Path&gt;" class="s10" d="m274 183l-15.1-22.8 2.8-0.1 13.6 21.1z"/>
			<path id="&lt;Path&gt;" class="s10" d="m268.9 161.5l10.2 16.5-1 2.2-12.5-19.7z"/>
			<path id="&lt;Path&gt;" class="s1" d="m273.9 183.1l34.2 15.2v-6.2l-26.9-20.7z"/>
			<path id="&lt;Path&gt;" class="s0" d="m279.9 162.7l-3.3 1.9v-16.2l3.3-1.9z"/>
			<path id="&lt;Path&gt;" class="s0" d="m261.9 130.8l-3 1.7 15.8-5.7 3-1.7z"/>
			<path id="&lt;Path&gt;" class="s0" d="m273.3 145.6l3.4-1.9 6.9-2.9-3 1.9z"/>
			<path id="&lt;Path&gt;" class="s0" d="m265.6 139.8l3.4-1.9 12.6-5.5-3.4 1.9z"/>
			<path id="&lt;Path&gt;" class="s10" d="m274.7 126.8l-15.8 5.6 2.7 2.7 14.3-5.4z"/>
			<path id="&lt;Path&gt;" class="s10" d="m283.9 144.8l-8.2 2.8-2.4-2 10.4-4.2z"/>
			<path id="&lt;Path&gt;" class="s10" d="m268.5 142.1l10-4.4-0.3-3.4-12.6 5.5z"/>
			<path id="&lt;Path&gt;" class="s1" d="m258.9 132l17.7 16.4v16.2l-17.7-3.9z"/>
			<path id="&lt;Path&gt;" class="s3" d="m281.2 171.4l26.8 20 3.4-1.4-3.3 2.1z"/>
			<path id="&lt;Path&gt;" class="s0" d="m308.1 157.2l3.3-1.9v-6.2l-3.3 2c0 0-0.1 6.1 0 6.1z"/>
			<path id="&lt;Path&gt;" class="s5" d="m277.2 124.8l-3.3 2 34.2 24.3 3.3-2z"/>
			<path id="&lt;Path&gt;" class="s3" d="m308.2 150.4l-34.3-23.6 34.2 24.3 3.3-2z"/>
			<path id="&lt;Path&gt;" class="s1" d="m273.9 126.8l34.2 24.3v6.1l-26.9-10.2z"/>
		</g>
		<path id="&lt;Path&gt;" class="s3" d="m197.3 239.3c-0.1-14.4-10.2-31.7-22.7-38.9-5.3-3.1-10.2-3.8-14-2.5 3.9-1.6 9-1 14.6 2.2 12.5 7.2 22.6 24.6 22.7 38.9v0.1 33l-0.6-0.3z"/>
		<path id="&lt;Path&gt;" class="s5" d="m262.2 130l-3.3 2 17.7 16.4 3.3-1.9-0.3-0.3-3 1.8-17-16 2.9-1.6z"/>
		<path id="&lt;Path&gt;" class="s0" d="m264.5 141.2c0 1.2-0.8 1.6-1.8 1-1-0.5-1.8-1.9-1.8-3.1 0-1.1 0.8-1.6 1.8-1 1 0.6 1.8 2 1.8 3.1z"/>
		<path id="&lt;Path&gt;" class="s0" d="m264.5 158c0 1.1-0.8 1.6-1.8 1-1-0.6-1.8-2-1.8-3.1 0-1.2 0.8-1.6 1.8-1.1 1 0.6 1.8 2 1.8 3.2z"/>
		<path id="&lt;Path&gt;" class="s5" d="m152.3 246.1l45.4 26.2-5.5 3.2-45.6-26.2z"/>
		<path id="&lt;Path&gt;" class="s4" d="m152.3 245.5l45.4 26.2-5.5 3.2-45.6-26.2z"/>
		<g id="&lt;Group&gt;">
			<path id="&lt;Path&gt;" class="s2" d="m193.2 272.4c-0.8 0.5-2.1 0.5-3 0-0.8-0.4-0.8-1.2 0-1.7 0.8-0.5 2.2-0.5 3 0 0.9 0.5 0.9 1.3 0 1.7z"/>
			<path id="&lt;Path&gt;" class="s2" d="m180.2 264.9c-0.8 0.4-2.2 0.4-3 0-0.9-0.5-0.9-1.3 0-1.8 0.8-0.5 2.1-0.5 3 0 0.8 0.5 0.8 1.3 0 1.8z"/>
			<path id="&lt;Path&gt;" class="s2" d="m167.1 257.3c-0.8 0.5-2.1 0.4-3 0-0.8-0.5-0.8-1.3 0-1.8 0.8-0.5 2.2-0.5 3 0 0.9 0.5 0.9 1.3 0 1.8z"/>
			<path id="&lt;Path&gt;" class="s2" d="m154.1 249.7c-0.9 0.5-2.2 0.5-3 0-0.9-0.5-0.9-1.3-0.1-1.8 0.9-0.4 2.2-0.4 3.1 0 0.8 0.5 0.8 1.3 0 1.8z"/>
		</g>
	</g>
</svg>